<mxfile host="app.diagrams.net" agent="Mozilla/5.0 (X11; Linux x86_64) AppleWebKit/537.36 (KHTML, like Gecko) Chrome/133.0.0.0 Safari/537.36" version="26.0.16">
  <diagram name="PÃ¡gina-1" id="o3XeQtnee0QA6-lhqgpr">
    <mxGraphModel dx="1434" dy="1855" grid="1" gridSize="10" guides="1" tooltips="1" connect="1" arrows="1" fold="1" page="1" pageScale="1" pageWidth="850" pageHeight="1100" math="0" shadow="0">
      <root>
        <mxCell id="0" />
        <mxCell id="1" parent="0" />
        <mxCell id="4tKHM-PRjVobR7fYrAJa-6" value="" style="verticalLabelPosition=bottom;aspect=fixed;html=1;shape=mxgraph.salesforce.data;" vertex="1" parent="1">
          <mxGeometry x="115.69999999999999" y="390" width="48.6" height="60" as="geometry" />
        </mxCell>
        <mxCell id="4tKHM-PRjVobR7fYrAJa-7" value="" style="verticalLabelPosition=bottom;aspect=fixed;html=1;shape=mxgraph.salesforce.data;" vertex="1" parent="1">
          <mxGeometry x="285.7" y="390" width="48.6" height="60" as="geometry" />
        </mxCell>
        <mxCell id="4tKHM-PRjVobR7fYrAJa-8" value="" style="verticalLabelPosition=bottom;aspect=fixed;html=1;shape=mxgraph.salesforce.data;" vertex="1" parent="1">
          <mxGeometry x="460" y="400" width="48.6" height="60" as="geometry" />
        </mxCell>
        <mxCell id="4tKHM-PRjVobR7fYrAJa-9" value="" style="verticalLabelPosition=bottom;aspect=fixed;html=1;shape=mxgraph.salesforce.data;" vertex="1" parent="1">
          <mxGeometry x="650" y="390" width="48.6" height="60" as="geometry" />
        </mxCell>
        <mxCell id="4tKHM-PRjVobR7fYrAJa-22" style="edgeStyle=orthogonalEdgeStyle;rounded=0;orthogonalLoop=1;jettySize=auto;html=1;exitX=0.5;exitY=1;exitDx=0;exitDy=0;entryX=0.5;entryY=0;entryDx=0;entryDy=0;" edge="1" parent="1" source="4tKHM-PRjVobR7fYrAJa-14" target="4tKHM-PRjVobR7fYrAJa-10">
          <mxGeometry relative="1" as="geometry">
            <Array as="points">
              <mxPoint x="420" y="160" />
              <mxPoint x="140" y="160" />
            </Array>
          </mxGeometry>
        </mxCell>
        <mxCell id="4tKHM-PRjVobR7fYrAJa-10" value="Usuario" style="rounded=0;whiteSpace=wrap;html=1;fillColor=#d5e8d4;strokeColor=#82b366;" vertex="1" parent="1">
          <mxGeometry x="80.00000000000001" y="220" width="120" height="60" as="geometry" />
        </mxCell>
        <mxCell id="4tKHM-PRjVobR7fYrAJa-15" style="edgeStyle=orthogonalEdgeStyle;rounded=0;orthogonalLoop=1;jettySize=auto;html=1;exitX=0.5;exitY=1;exitDx=0;exitDy=0;entryX=0.5;entryY=1;entryDx=0;entryDy=0;" edge="1" parent="1" source="4tKHM-PRjVobR7fYrAJa-11" target="4tKHM-PRjVobR7fYrAJa-12">
          <mxGeometry relative="1" as="geometry" />
        </mxCell>
        <mxCell id="4tKHM-PRjVobR7fYrAJa-16" style="edgeStyle=orthogonalEdgeStyle;rounded=0;orthogonalLoop=1;jettySize=auto;html=1;exitX=0;exitY=0.5;exitDx=0;exitDy=0;entryX=1;entryY=0.5;entryDx=0;entryDy=0;" edge="1" parent="1" source="4tKHM-PRjVobR7fYrAJa-11" target="4tKHM-PRjVobR7fYrAJa-13">
          <mxGeometry relative="1" as="geometry" />
        </mxCell>
        <mxCell id="4tKHM-PRjVobR7fYrAJa-19" style="edgeStyle=orthogonalEdgeStyle;rounded=0;orthogonalLoop=1;jettySize=auto;html=1;exitX=0.5;exitY=1;exitDx=0;exitDy=0;entryX=0.5;entryY=0;entryDx=0;entryDy=0;" edge="1" parent="1" source="4tKHM-PRjVobR7fYrAJa-14" target="4tKHM-PRjVobR7fYrAJa-11">
          <mxGeometry relative="1" as="geometry">
            <Array as="points">
              <mxPoint x="420" y="160" />
              <mxPoint x="684" y="160" />
            </Array>
          </mxGeometry>
        </mxCell>
        <mxCell id="4tKHM-PRjVobR7fYrAJa-11" value="Ventas" style="rounded=0;whiteSpace=wrap;html=1;fillColor=#d5e8d4;strokeColor=#82b366;" vertex="1" parent="1">
          <mxGeometry x="624.3" y="220" width="120" height="60" as="geometry" />
        </mxCell>
        <mxCell id="4tKHM-PRjVobR7fYrAJa-21" style="edgeStyle=orthogonalEdgeStyle;rounded=0;orthogonalLoop=1;jettySize=auto;html=1;exitX=0.5;exitY=1;exitDx=0;exitDy=0;entryX=0.5;entryY=0;entryDx=0;entryDy=0;" edge="1" parent="1" source="4tKHM-PRjVobR7fYrAJa-14" target="4tKHM-PRjVobR7fYrAJa-12">
          <mxGeometry relative="1" as="geometry">
            <Array as="points">
              <mxPoint x="420" y="160" />
              <mxPoint x="310" y="160" />
            </Array>
          </mxGeometry>
        </mxCell>
        <mxCell id="4tKHM-PRjVobR7fYrAJa-12" value="Inventario" style="rounded=0;whiteSpace=wrap;html=1;fillColor=#d5e8d4;strokeColor=#82b366;" vertex="1" parent="1">
          <mxGeometry x="250" y="220" width="120" height="60" as="geometry" />
        </mxCell>
        <mxCell id="4tKHM-PRjVobR7fYrAJa-17" style="edgeStyle=orthogonalEdgeStyle;rounded=0;orthogonalLoop=1;jettySize=auto;html=1;exitX=0;exitY=0.5;exitDx=0;exitDy=0;entryX=1;entryY=0.5;entryDx=0;entryDy=0;" edge="1" parent="1" source="4tKHM-PRjVobR7fYrAJa-13" target="4tKHM-PRjVobR7fYrAJa-12">
          <mxGeometry relative="1" as="geometry" />
        </mxCell>
        <mxCell id="4tKHM-PRjVobR7fYrAJa-18" style="edgeStyle=orthogonalEdgeStyle;rounded=0;orthogonalLoop=1;jettySize=auto;html=1;exitX=0.5;exitY=1;exitDx=0;exitDy=0;entryX=0.5;entryY=1;entryDx=0;entryDy=0;" edge="1" parent="1" source="4tKHM-PRjVobR7fYrAJa-13" target="4tKHM-PRjVobR7fYrAJa-10">
          <mxGeometry relative="1" as="geometry" />
        </mxCell>
        <mxCell id="4tKHM-PRjVobR7fYrAJa-20" style="edgeStyle=orthogonalEdgeStyle;rounded=0;orthogonalLoop=1;jettySize=auto;html=1;exitX=0.5;exitY=0;exitDx=0;exitDy=0;entryX=0.5;entryY=0;entryDx=0;entryDy=0;" edge="1" parent="1" target="4tKHM-PRjVobR7fYrAJa-13">
          <mxGeometry relative="1" as="geometry">
            <mxPoint x="420" y="110" as="sourcePoint" />
            <Array as="points">
              <mxPoint x="420" y="160" />
              <mxPoint x="485" y="160" />
            </Array>
          </mxGeometry>
        </mxCell>
        <mxCell id="4tKHM-PRjVobR7fYrAJa-13" value="Pedidos" style="rounded=0;whiteSpace=wrap;html=1;fillColor=#d5e8d4;strokeColor=#82b366;" vertex="1" parent="1">
          <mxGeometry x="425" y="220" width="120" height="60" as="geometry" />
        </mxCell>
        <mxCell id="4tKHM-PRjVobR7fYrAJa-14" value="ApiGateway" style="rounded=0;whiteSpace=wrap;html=1;fillColor=#dae8fc;strokeColor=#6c8ebf;" vertex="1" parent="1">
          <mxGeometry x="360" y="50" width="120" height="60" as="geometry" />
        </mxCell>
        <mxCell id="4tKHM-PRjVobR7fYrAJa-23" value="" style="endArrow=classic;html=1;rounded=0;exitX=0.479;exitY=0;exitDx=0;exitDy=0;exitPerimeter=0;entryX=0.5;entryY=1;entryDx=0;entryDy=0;" edge="1" parent="1" source="4tKHM-PRjVobR7fYrAJa-6" target="4tKHM-PRjVobR7fYrAJa-10">
          <mxGeometry width="50" height="50" relative="1" as="geometry">
            <mxPoint x="140" y="370" as="sourcePoint" />
            <mxPoint x="140" y="320" as="targetPoint" />
          </mxGeometry>
        </mxCell>
        <mxCell id="4tKHM-PRjVobR7fYrAJa-24" value="" style="endArrow=classic;html=1;rounded=0;entryX=0.5;entryY=1;entryDx=0;entryDy=0;" edge="1" parent="1" target="4tKHM-PRjVobR7fYrAJa-12">
          <mxGeometry width="50" height="50" relative="1" as="geometry">
            <mxPoint x="310" y="390" as="sourcePoint" />
            <mxPoint x="309.5" y="320" as="targetPoint" />
          </mxGeometry>
        </mxCell>
        <mxCell id="4tKHM-PRjVobR7fYrAJa-25" value="" style="endArrow=classic;html=1;rounded=0;exitX=0.5;exitY=1;exitDx=0;exitDy=0;entryX=0.521;entryY=0;entryDx=0;entryDy=0;entryPerimeter=0;" edge="1" parent="1" source="4tKHM-PRjVobR7fYrAJa-13" target="4tKHM-PRjVobR7fYrAJa-8">
          <mxGeometry width="50" height="50" relative="1" as="geometry">
            <mxPoint x="484.5" y="320" as="sourcePoint" />
            <mxPoint x="484.5" y="370" as="targetPoint" />
          </mxGeometry>
        </mxCell>
        <mxCell id="4tKHM-PRjVobR7fYrAJa-26" value="" style="endArrow=classic;html=1;rounded=0;" edge="1" parent="1">
          <mxGeometry width="50" height="50" relative="1" as="geometry">
            <mxPoint x="683.8" y="360" as="sourcePoint" />
            <mxPoint x="683.8" y="310" as="targetPoint" />
          </mxGeometry>
        </mxCell>
        <mxCell id="4tKHM-PRjVobR7fYrAJa-27" value="Frontend" style="rounded=0;whiteSpace=wrap;html=1;fillColor=#f8cecc;strokeColor=#b85450;" vertex="1" parent="1">
          <mxGeometry x="360" y="-90" width="120" height="60" as="geometry" />
        </mxCell>
        <mxCell id="4tKHM-PRjVobR7fYrAJa-29" value="" style="endArrow=classic;startArrow=classic;html=1;rounded=0;entryX=0.5;entryY=1;entryDx=0;entryDy=0;exitX=0.5;exitY=0;exitDx=0;exitDy=0;" edge="1" parent="1" source="4tKHM-PRjVobR7fYrAJa-14" target="4tKHM-PRjVobR7fYrAJa-27">
          <mxGeometry width="50" height="50" relative="1" as="geometry">
            <mxPoint x="380" y="50" as="sourcePoint" />
            <mxPoint x="430" as="targetPoint" />
          </mxGeometry>
        </mxCell>
      </root>
    </mxGraphModel>
  </diagram>
</mxfile>
